<svg width="16" height="16" viewBox="0 0 16 16" fill="none" xmlns="http://www.w3.org/2000/svg">
  <path d="M8 0.761719C11.9975 0.761719 15.2383 4.00251 15.2383 8C15.2383 11.9975 11.9975 15.2383 8 15.2383C4.00251 15.2383 0.761719 11.9975 0.761719 8C0.761719 4.00251 4.00251 0.761719 8 0.761719ZM8.48242 5.68262C7.97842 5.97662 7.33377 6.2288 6.75977 6.4668C6.71777 6.55079 6.71809 6.6214 6.74609 6.7334C7.10979 7.18099 7.3617 7.36283 7.37598 7.60059C7.40398 8.14659 7.36231 9.28946 7.32031 10.6475C7.30628 11.0811 7.23596 11.2067 6.95605 11.3047C6.80224 11.3606 6.42519 11.4309 6.35449 11.459C6.2706 11.5569 6.28418 11.7943 6.38184 11.8926C7.20784 11.8646 8.59454 11.8646 9.60254 11.8926C9.71416 11.7944 9.72812 11.5569 9.6582 11.459C9.60225 11.445 9.29466 11.3753 9.09863 11.3193C8.80474 11.2354 8.73407 11.0391 8.70605 10.6055C8.62205 9.33147 8.67773 8.30055 8.67773 7.76855C8.67775 7.41818 8.69207 6.45265 8.74805 5.83691C8.69207 5.72508 8.5943 5.69662 8.48242 5.68262ZM7.92188 3.10742C7.43216 3.10759 7.05392 3.49889 7.05371 3.97461C7.05371 4.45051 7.43203 4.84261 7.92188 4.84277C8.39787 4.84277 8.77637 4.45061 8.77637 3.97461C8.77616 3.49879 8.39775 3.10742 7.92188 3.10742Z" fill="#3C3C3C"/>
</svg>
